<svg width="691" xmlns="http://www.w3.org/2000/svg" height="256" id="screenshot-5bfbdedd-26b8-800d-8005-4e30d2cd0764" fill="none" version="1.1"><style>@font-face{font-family:&apos;Archivo Black&apos;;font-style:normal;font-weight:400;font-display:block;src:url(https://design.penpot.app/internal/gfonts/font/archivoblack/v21/HTxqL289NzCGg4MzN6KJ7eW6CYKF_i7y.woff2) format(&apos;woff2&apos;);unicode-range:U+0100-02BA, U+02BD-02C5, U+02C7-02CC, U+02CE-02D7, U+02DD-02FF, U+0304, U+0308, U+0329, U+1D00-1DBF, U+1E00-1E9F, U+1EF2-1EFF, U+2020, U+20A0-20AB, U+20AD-20C0, U+2113, U+2C60-2C7F, U+A720-A7FF}@font-face{font-family:&apos;Archivo Black&apos;;font-style:normal;font-weight:400;font-display:block;src:url(https://design.penpot.app/internal/gfonts/font/archivoblack/v21/HTxqL289NzCGg4MzN6KJ7eW6CYyF_g.woff2) format(&apos;woff2&apos;);unicode-range:U+0000-00FF, U+0131, U+0152-0153, U+02BB-02BC, U+02C6, U+02DA, U+02DC, U+0304, U+0308, U+0329, U+2000-206F, U+20AC, U+2122, U+2191, U+2193, U+2212, U+2215, U+FEFF, U+FFFD}</style><g id="shape-5bfbdedd-26b8-800d-8005-4e30d2cd0764"><g id="shape-5bfbdedd-26b8-800d-8005-4e30571ef7ba"><g class="fills" id="fills-5bfbdedd-26b8-800d-8005-4e30571ef7ba"><rect rx="0" ry="0" width="256" height="256" class="frame-background"/></g><g class="frame-children"><g id="shape-5bfbdedd-26b8-800d-8005-4e2f7c247b6d" style="fill: rgb(0, 0, 0);"><g id="shape-5bfbdedd-26b8-800d-8005-4e2f7c256df9" clip-path="url(#render-5-a)" style="fill: rgb(0, 0, 0);"><defs><clipPath id="render-5-a" class="svg-def" transform="matrix(.12987 0 0 -.1168 6.575 236.716)"><path d="m1815 319-160 280-45 80h-108l-138 261a441 441 0 0 1-283 514l-146 265-145-265-15-5a442 442 0 0 1-269-510L369 679H261l-46-80L55 319h460l75 149 4 2 1-2a340 340 0 0 1 678 0l-2 2-1-2 85-149h460z"/></clipPath></defs><g id="shape-5bfbdedd-26b8-800d-8005-4e2f7c256dfa"><path d="m209.455 175.367-5.887-12.321h16.702l.821 1.369 6.16 10.952h-17.933Zm-163.183 0H28.749l6.981-12.321h16.565l-6.023 12.321Z" style="fill: rgb(158, 158, 158);" class="fills" id="fills-5bfbdedd-26b8-800d-8005-4e2f7c256dfa"/></g><g id="shape-5bfbdedd-26b8-800d-8005-4e2f7c25a404"><path d="m248.471 212.329-21.904-38.331h-15.333l-24.505-46.682L128 20.672l-58.729 106.78-24.505 46.546H29.433L7.529 212.329h62.974l10.267-20.397 33.403-60.92 13.69-25.053 13.142 25.053 32.856 60.92 11.636 20.397" style="fill: rgb(66, 66, 66);" class="fills" id="fills-5bfbdedd-26b8-800d-8005-4e2f7c25a404"/></g><g id="shape-5bfbdedd-26b8-800d-8005-4e2f7c25a405" style="fill: rgb(0, 0, 0);"><g id="shape-5bfbdedd-26b8-800d-8005-4e2f7c25a406"><path d="M71.269 210.96H8.296l-.767 1.369h62.974l.766-1.369Zm114.228 1.369-.753-1.369h62.946l.781 1.369h-62.974Z" style="fill: rgb(255, 255, 255); fill-opacity: 0.2;" class="fills" id="fills-5bfbdedd-26b8-800d-8005-4e2f7c25a406"/></g><g id="shape-5bfbdedd-26b8-800d-8005-4e2f7c25ca56"><path d="m221.146 164.442-.794-1.396h-14.868l-18.796-35.662L128 20.672 69.312 127.411l-18.755 35.635H35.676l-.767 1.369h15.648l.725-1.369 18.03-34.266L128 22.041l58.688 106.712 18.81 35.689" style="fill: rgb(38, 50, 56); fill-opacity: 0.2;" class="fills" id="fills-5bfbdedd-26b8-800d-8005-4e2f7c25ca56"/></g><g id="shape-5bfbdedd-26b8-800d-8005-4e2f7c25ca57" style="fill: rgb(0, 0, 0);"><g id="shape-5bfbdedd-26b8-800d-8005-4e2f7c25ca58"><path d="M151.273 113.763c0-12.854-10.42-23.273-23.273-23.273s-23.273 10.419-23.273 23.273c0 12.853 10.42 23.272 23.273 23.272s23.273-10.419 23.273-23.272Zm-2.738 71.187c0-11.341-9.194-20.535-20.535-20.535s-20.535 9.194-20.535 20.535 9.194 20.534 20.535 20.534 20.535-9.193 20.535-20.534Z" style="fill: rgb(255, 255, 255); fill-opacity: 1;" class="fills" id="fills-5bfbdedd-26b8-800d-8005-4e2f7c25ca58"/></g><g id="shape-5bfbdedd-26b8-800d-8005-4e2f7c26ae9d"><path d="M186.729 127.316c-3.148 13.416-10.541 24.915-20.808 33.266 11.415 15.938 11.62 37.321.511 53.475-11.108 16.154-31.148 23.616-50.116 18.661-18.968-4.955-32.799-21.263-34.588-40.786a46.415 46.415 0 0 1 8.351-31.35 60.098 60.098 0 0 1-20.808-33.13 59.763 59.763 0 0 1-1.506-13.689c0-25.464 15.88-47.367 38.331-56.129A60.383 60.383 0 0 1 128 53.527a60.1 60.1 0 0 1 58.729 73.789ZM128 204.116c10.585 0 19.166-8.581 19.166-19.166s-8.581-19.166-19.166-19.166-19.166 8.581-19.166 19.166 8.581 19.166 19.166 19.166Zm0-112.257c-12.047 0-21.904 9.857-21.904 21.904a21.906 21.906 0 0 0 35.32 17.249 21.768 21.768 0 0 0 8.488-17.249c0-12.098-9.807-21.904-21.904-21.904Z" style="fill: rgb(66, 133, 244); fill-opacity: 1;" class="fills" id="fills-5bfbdedd-26b8-800d-8005-4e2f7c26ae9d"/></g></g><g id="shape-5bfbdedd-26b8-800d-8005-4e2f7c26ae9e"><path d="M174.545 187.688v-.685c-.383 25.395-21.082 45.861-46.545 45.861s-46.176-20.466-46.545-45.861v.685c0 25.709 20.835 46.545 46.545 46.545s46.545-20.836 46.545-46.545Zm-85.013-27.585c-13.28-11.021-21.767-27.695-21.767-46.34v-.685c.205 18.646 8.898 35.251 22.369 46.162l.63.507-.63.821-.602-.465Zm76.936 0-.602.506-.63-.862.63-.548c13.485-10.952 22.178-27.516 22.369-46.135v.685c0 18.618-8.487 35.32-21.767 46.354Z" style="fill: rgb(255, 255, 255); fill-opacity: 0.2;" class="fills" id="fills-5bfbdedd-26b8-800d-8005-4e2f7c26ae9e"/></g><g id="shape-5bfbdedd-26b8-800d-8005-4e2f7c26d012"><path d="M188.235 114.447v-.684c0-33.267-26.969-60.236-60.235-60.236s-60.235 26.969-60.235 60.236v.684C68.134 81.496 94.966 54.896 128 54.896s59.866 26.6 60.235 59.551Zm-106.78 73.925v-.684a46.269 46.269 0 0 1 9.309-27.928c.219.137.438.329.684.493a46.376 46.376 0 0 0-9.993 28.119Zm93.09 0a46.349 46.349 0 0 0-9.993-28.119c.246-.164.465-.342.684-.506 5.846 7.666 9.309 17.386 9.309 27.927v.698Z" style="fill: rgb(38, 50, 56); fill-opacity: 0.2;" class="fills" id="fills-5bfbdedd-26b8-800d-8005-4e2f7c26d012"/></g></g></g><g id="shape-5bfbdedd-26b8-800d-8005-4e2f7c27127e"><defs><radialGradient cx="78" cy="337" r="1854" id="render-16-b" gradientUnits="userSpaceOnUse" gradientTransform="matrix(.1369 0 0 -.1369 0 256)"><stop offset="0" stop-color="#fff" stop-opacity=".1"/><stop offset="1" stop-color="#fff" stop-opacity="0"/></radialGradient></defs><path d="m248.471 212.329-21.904-38.331-6.161-10.952h-14.922l-18.755-35.73c6.827-29.891-9.834-60.151-38.742-70.366L128 20.672 108.15 56.95l-2.054.684c-27.855 10.961-43.509 40.641-36.825 69.818l-18.755 35.594H35.73l-6.297 10.952-21.904 38.331h62.974l10.267-20.397.548-.274.137.274c1.864 24.251 22.085 42.978 46.408 42.978s44.545-18.727 46.409-42.978l-.274-.274-.137.274 11.636 20.397h62.974Z" fill="url(#render-16-b)" style="fill: url(&quot;#render-16-b&quot;);" class="fills" id="fills-5bfbdedd-26b8-800d-8005-4e2f7c27127e"/></g></g></g></g><g id="shape-5bfbdedd-26b8-800d-8005-4e3051f1d7fb"><g class="fills" id="fills-5bfbdedd-26b8-800d-8005-4e3051f1d7fb"><rect rx="0" ry="0" x="242" y="15.5" width="449" height="231" class="frame-background"/></g><g class="frame-children"><g class="text-container" id="shape-5bfbdedd-26b8-800d-8005-4e2f94c116d3"><defs><pattern patternUnits="userSpaceOnUse" x="242" y="15.5" width="448.135" height="258.667" id="fill-0-render-18-0"><rect width="448.135" height="258.667" style="fill: rgb(66, 66, 66); fill-opacity: 1;"/></pattern></defs><text x="242" y="259.5" dominant-baseline="ideographic" textLength="448.135" lengthAdjust="spacingAndGlyphs" style="text-transform: none; font-family: &quot;Archivo Black&quot;; letter-spacing: normal; font-style: normal; font-weight: 400; white-space: pre; font-size: 192px; text-decoration: none solid rgb(66, 66, 66); direction: ltr; fill: rgb(66, 66, 66); fill-opacity: 1;" class="fills" id="fills-5bfbdedd-26b8-800d-8005-4e2f94c116d3">kutz</text></g></g></g></g></svg>